<svg xmlns="http://www.w3.org/2000/svg" viewBox="0 0 512 512">
  <!-- Blue rounded pentagon body -->
  <path d="M256 28 C290 28, 380 80, 430 140 C470 188, 484 260, 468 320 C450 390, 360 460, 256 460 C152 460, 62 390, 44 320 C28 260, 42 188, 82 140 C132 80, 222 28, 256 28Z" fill="#18BCF2" stroke="#0EA5DB" stroke-width="4"/>
  <!-- Three holes (transparent circles) -->
  <circle cx="190" cy="200" r="32" fill="white" opacity="0.9"/>
  <circle cx="322" cy="200" r="32" fill="white" opacity="0.9"/>
  <circle cx="256" cy="310" r="36" fill="white" opacity="0.9"/>
  <!-- Plus badge (green circle with white +) -->
  <circle cx="410" cy="410" r="72" fill="#4CAF50" stroke="white" stroke-width="6"/>
  <rect x="390" y="374" width="40" height="72" rx="6" fill="white"/>
  <rect x="374" y="390" width="72" height="40" rx="6" fill="white"/>
</svg>
